<svg width="500" height="500" viewBox="0 0 500 500" fill="none" xmlns="http://www.w3.org/2000/svg">
<path d="M406.7 380.4C406.7 380.4 397.8 362.6 397.3 351.3C396.8 340 388.9 279.7 382.5 259.4C376.1 239.1 350.5 211.4 326.3 194.8C321 191.2 296.7 177.5 296.7 177.5L292.7 249C292.7 249 327.7 290.4 329.7 308.2C331.7 326 321.3 357.5 328.1 369.3C340.1 390.4 333 379.8 347.3 400.6L406.7 380.4Z" fill="white"/>
<path d="M347.4 401.5C347.1 401.5 346.9 401.4 346.8 401.2L344 397.1C336.9 386.8 336.9 386.8 334.4 382.1C333.2 379.8 331.3 376.3 327.6 369.8C323.6 362.7 325.4 349.4 327.3 335.4C328.6 325.8 330 315.8 329.1 308.4C327.2 291.1 292.6 250.1 292.3 249.6C292.2 249.4 292.1 249.2 292.1 249L296.1 177.6C296.1 177.3 296.3 177.1 296.5 177C296.7 176.9 297 176.9 297.3 177C298.3 177.6 321.7 190.7 326.9 194.3C349.2 209.6 376.5 237.6 383.4 259.3C389.9 279.7 397.7 339.6 398.2 351.4C398.7 362.4 407.4 380 407.5 380.2C407.6 380.4 407.6 380.6 407.5 380.8C407.4 381 407.2 381.2 407 381.2L347.7 401.5C347.6 401.5 347.5 401.5 347.4 401.5ZM293.6 248.8C296.7 252.5 328.6 290.9 330.6 308.2C331.4 315.8 330.1 325.8 328.7 335.6C326.9 348.8 325.1 362.4 328.8 369.1C332.5 375.6 334.4 379.1 335.6 381.4C338.1 386 338.1 386 345.1 396.3L347.6 399.9L405.5 380C403.7 376.4 396.9 361.5 396.5 351.4C396 340 388 279.6 381.7 259.8C375.7 241 351.7 213.4 325.8 195.6C321.3 192.5 302.2 181.7 297.4 179L293.6 248.8Z" fill="#231F20"/>
<path d="M93.3 380.4C93.3 380.4 102.2 362.6 102.7 351.3C103.2 340 111.1 279.7 117.5 259.4C123.9 239.1 149.5 211.4 173.7 194.8C179 191.2 203.3 177.5 203.3 177.5L207.2 249C207.2 249 172.2 290.4 170.2 308.2C168.2 326 178.6 357.5 171.8 369.3C159.8 390.4 166.9 379.8 152.6 400.6L93.3 380.4Z" fill="white"/>
<path d="M152.6 401.5C152.5 401.5 152.4 401.5 152.4 401.5L93.0999 381.1C92.8999 381 92.6999 380.9 92.5999 380.7C92.4999 380.5 92.4999 380.3 92.5999 380.1C92.6999 379.9 101.4 362.4 101.9 351.3C102.4 339.5 110.3 279.6 116.7 259.2C123.6 237.5 150.9 209.5 173.2 194.2C178.4 190.6 201.8 177.5 202.8 176.9C203 176.8 203.3 176.8 203.6 176.9C203.8 177 204 177.3 204 177.5L208 248.9C208 249.1 207.9 249.3 207.8 249.5C207.5 249.9 172.9 290.9 171 308.2C170.2 315.6 171.5 325.5 172.8 335.2C174.7 349.3 176.5 362.5 172.5 369.6C168.8 376.1 166.9 379.6 165.7 381.9C163.2 386.6 163.2 386.6 156.1 396.9L153.3 401C153.1 401.3 152.9 401.5 152.6 401.5ZM94.3999 379.9L152.3 399.8L154.8 396.2C161.8 386 161.8 386 164.4 381.3C165.6 379 167.5 375.5 171.2 369C175 362.4 173.1 348.7 171.3 335.5C170 325.8 168.6 315.7 169.4 308.1C171.3 290.8 203.2 252.5 206.4 248.7L202.5 178.8C197.7 181.5 178.6 192.3 174.1 195.4C148.2 213.2 124.2 240.8 118.2 259.6C111.9 279.4 103.9 339.9 103.4 351.2C103 361.5 96.1999 376.3 94.3999 379.9Z" fill="#231F20"/>
<path d="M166.9 425.7C167.7 422.2 168.2 418.6 168.3 415C168.3 410.5 163.6 403.9 163.6 403.9L166.5 389.3C166.5 389.3 92.9 360.6 89.9 364.5C86.9 368.4 81 389.4 81 389.4C81 389.4 71.5999 395 68.6999 400.8C66.9999 404.1 64 416.2 61.7 425.8L166.9 425.7Z" fill="black"/>
<path d="M156 410.4C155.9 410.4 155.8 410.4 155.8 410.4L88.8 390.1C88.4 390 88.1 389.6 88.3 389.1C88.4 388.7 88.9 388.4 89.3 388.6L156.3 408.9C156.7 409 156.9 409.5 156.8 409.9C156.6 410.2 156.4 410.4 156 410.4Z" fill="#231F20"/>
<path d="M333.1 425.7H438.3C436.1 416.1 433 404 431.3 400.7C428.3 394.9 419 389.3 419 389.3C419 389.3 413.1 368.5 410.1 364.5C407.1 360.5 333.5 389.3 333.5 389.3L336.4 403.9C336.4 403.9 331.8 410.4 331.7 415C331.9 418.7 332.3 422.2 333.1 425.7Z" fill="black"/>
<path d="M406.7 391.4L346.3 409.7Z" fill="white"/>
<path d="M346.2 410.4C345.8 410.4 345.4 410 345.4 409.6C345.4 409.3 345.6 409 345.9 408.9L406.3 390.6C406.7 390.5 407.2 390.7 407.3 391.1C407.4 391.5 407.2 392 406.8 392.1L346.4 410.4C346.4 410.4 346.3 410.4 346.2 410.4Z" fill="#231F20"/>
<path d="M193.5 75H306.5C311.1 75 314.8 78.7 314.8 83.3V324.9C314.8 329.5 311.1 333.2 306.5 333.2H193.5C188.9 333.2 185.2 329.5 185.2 324.9V83.3C185.2 78.7 188.9 75 193.5 75Z" fill="white"/>
<path d="M306.5 334H193.5C188.5 334 184.5 330 184.5 325V83.3C184.5 78.3 188.5 74.3 193.5 74.3H306.5C311.5 74.3 315.5 78.3 315.5 83.3V324.9C315.5 329.9 311.5 334 306.5 334ZM193.5 75.8C189.4 75.8 186 79.1 186 83.3V324.9C186 329 189.3 332.4 193.5 332.4H306.5C310.6 332.4 314 329 314 324.9V83.3C314 79.2 310.7 75.8 306.5 75.8H193.5Z" fill="#231F20"/>
<path d="M308 98.4H192.1V297.1H308V98.4Z" fill="white"/>
<path d="M308 297.9H192.1C191.7 297.9 191.3 297.6 191.3 297.1V98.4C191.3 98 191.6 97.6 192.1 97.6H308C308.4 97.6 308.8 97.9 308.8 98.4V297.1C308.8 297.5 308.4 297.9 308 297.9ZM192.9 296.3H307.2V99.2H192.8L192.9 296.3Z" fill="#231F20"/>
<path d="M239 306.7H261C263.8 306.7 266.1 309 266.1 311.8V320.2C266.1 323 263.8 325.3 261 325.3H239C236.2 325.3 233.9 323 233.9 320.2V311.8C233.9 309 236.2 306.7 239 306.7Z" fill="white"/>
<path d="M261 326.1H239C235.8 326.1 233.1 323.5 233.1 320.2V311.8C233.1 308.6 235.7 305.9 239 305.9H261C264.2 305.9 266.9 308.5 266.9 311.8V320.2C266.9 323.5 264.2 326.1 261 326.1ZM239 307.5C236.6 307.5 234.7 309.4 234.7 311.8V320.2C234.7 322.6 236.6 324.5 239 324.5H261C263.4 324.5 265.3 322.6 265.3 320.2V311.8C265.3 309.4 263.4 307.5 261 307.5H239Z" fill="#D1D3D4"/>
<path d="M261.7 87H228.7C228.3 87 227.9 86.6 227.9 86.2C227.9 85.8 228.2 85.4 228.7 85.4H261.7C262.1 85.4 262.5 85.7 262.5 86.2C262.5 86.6 262.1 87 261.7 87Z" fill="#D1D3D4"/>
<path d="M270.8 87H266.4C266 87 265.6 86.6 265.6 86.2C265.6 85.8 265.9 85.4 266.4 85.4H270.8C271.2 85.4 271.6 85.8 271.6 86.2C271.5 86.7 271.2 87 270.8 87Z" fill="#D1D3D4"/>
<path d="M308 110.4H192.1C191.7 110.4 191.3 110.1 191.3 109.6C191.3 109.2 191.6 108.8 192.1 108.8H308C308.4 108.8 308.8 109.1 308.8 109.6C308.8 110 308.4 110.4 308 110.4Z" fill="#231F20"/>
<path d="M302.9 118.4H296.5H296.2H249.8C248.1 118.4 246.8 119.7 246.8 121.4V133.1C246.8 134.8 248.1 136.1 249.8 136.1H296.2C297.9 136.1 299.2 134.8 299.2 133.1V122.1L302.9 118.4Z" fill="#D1D3D4"/>
<path d="M203.6 176.5H210H210.3H256.7C258.4 176.5 259.7 177.8 259.7 179.5V197.7C259.7 199.4 258.4 200.7 256.7 200.7H210.3C208.6 200.7 207.3 199.4 207.3 197.7V180.1L203.6 176.5Z" fill="#D1D3D4"/>
<path d="M203.6 235.3H210C210.1 235.3 210.2 235.3 210.3 235.3H265C266.7 235.3 268 236.6 268 238.3V263.6C268 265.3 266.7 266.6 265 266.6H210.3C208.6 266.6 207.3 265.3 207.3 263.6V239L203.6 235.3Z" fill="#D1D3D4"/>
<path d="M302.9 208.2H296.5H296.2H249.8C248.1 208.2 246.8 209.5 246.8 211.2V222.9C246.8 224.6 248.1 225.9 249.8 225.9H296.2C297.9 225.9 299.2 224.6 299.2 222.9V211.9L302.9 208.2Z" fill="#D1D3D4"/>
<path d="M238 140.2H295C297.3 140.2 299.1 142 299.1 144.3V163.6C299.1 165.9 297.3 167.7 295 167.7H238C235.7 167.7 233.9 165.9 233.9 163.6V144.3C233.8 142.1 235.7 140.2 238 140.2Z" fill="#D1D3D4"/>
<path d="M205.1 276.7H295C298.6 276.7 301.5 279.6 301.5 283.2C301.5 286.8 298.6 289.7 295 289.7H205.1C201.5 289.7 198.6 286.8 198.6 283.2C198.6 279.6 201.5 276.7 205.1 276.7Z" fill="white"/>
<path d="M294.9 290.5H205C201 290.4 197.8 287 198 282.9C198.1 279.1 201.2 276 205 275.9H294.9C298.9 276 302.1 279.4 301.9 283.5C301.8 287.3 298.7 290.3 294.9 290.5ZM205.1 277.5C201.9 277.5 199.4 280.1 199.4 283.2C199.4 286.3 202 288.9 205.1 288.9H295C298.2 288.9 300.7 286.3 300.7 283.2C300.7 280.1 298.1 277.5 295 277.5H205.1Z" fill="#D1D3D4"/>
<path d="M160.4 389.4C160.4 389.4 186 368.3 188 344.2C190 320.1 186 295 189 289.6C192 284.2 212.6 254.6 217.1 246.7C223 236.3 214.1 227 207.7 230.9C201.3 234.8 176.1 249.1 162.8 268.4C162.8 268.4 154.9 276.8 148 291.6" fill="white"/>
<path d="M160.4 390.1C160 390.1 159.6 389.7 159.6 389.3C159.6 389.1 159.7 388.9 159.9 388.7C160.2 388.5 185.3 367.5 187.2 344C188.2 332.3 187.7 320.2 187.3 310.5C186.9 299.8 186.6 292.1 188.2 289.1C189.6 286.5 195.2 278.2 201 269.5C207.4 260 213.9 250.3 216.3 246.2C219.5 240.6 218.1 235.4 215.3 232.6C213.1 230.5 210.3 230 208 231.4L206.3 232.4C197.9 237.5 175.6 250.9 163.4 268.6C163.2 268.8 155.4 277.2 148.7 291.7C148.5 292.1 148.1 292.2 147.7 292.1C147.3 291.9 147.2 291.5 147.3 291.1C154.2 276.4 162.2 267.8 162.2 267.7C174.6 249.8 197.1 236.3 205.5 231.1L207.2 230.1C210.1 228.3 213.7 228.9 216.4 231.5C219.6 234.6 221.3 240.6 217.7 246.9C215.3 251 208.8 260.8 202.4 270.3C196.6 279 191 287.2 189.6 289.8C188.2 292.4 188.5 300.3 188.9 310.4C189.3 320.1 189.7 332.3 188.8 344.1C186.8 368.3 161.2 389.7 160.9 389.9C160.8 390.1 160.6 390.2 160.4 390.1Z" fill="#231F20"/>
<path d="M339.6 389.4C339.6 389.4 314 368.3 312 344.2C310 320.1 314 295 311 289.6C308 284.2 287.4 254.6 282.9 246.7C277 236.3 285.9 227 292.3 230.9C298.7 234.8 323.9 249.1 337.2 268.4C337.2 268.4 345.1 276.8 352 291.6" fill="white"/>
<path d="M339.6 390.1C339.4 390.1 339.2 390 339.1 389.9C338.8 389.7 313.2 368.3 311.2 344.1C310.2 332.3 310.7 320.1 311.1 310.4C311.5 300.3 311.8 292.4 310.4 289.8C309 287.2 303.5 279 297.6 270.3C291.2 260.8 284.6 251 282.3 246.9C278.7 240.6 280.3 234.6 283.6 231.5C286.3 228.9 289.9 228.3 292.8 230.1L294.5 231.1C303 236.2 325.5 249.8 337.9 267.8C337.9 267.8 345.9 276.3 352.8 291.1C353 291.5 352.8 291.9 352.4 292.1C352 292.3 351.6 292.1 351.4 291.7C344.6 277.2 336.8 268.8 336.8 268.7C324.5 250.9 302.2 237.5 293.8 232.4L292.1 231.4C289.8 230 287 230.4 284.8 232.6C282 235.3 280.6 240.6 283.8 246.2C286.1 250.3 292.7 260 299.1 269.5C305 278.2 310.5 286.4 311.9 289.1C313.5 292.1 313.2 299.8 312.8 310.5C312.4 320.2 312 332.3 312.9 344C314.8 367.5 339.9 388.5 340.2 388.7C340.5 389 340.6 389.5 340.3 389.8C340.1 390 339.9 390.1 339.6 390.1Z" fill="#231F20"/>
<path d="M98.3 115.1H201.6C208.1 115.1 213.3 120.4 213.3 126.8V174C213.3 180.5 208 185.7 201.6 185.7H98.3C91.8 185.7 86.6 180.4 86.6 174V126.8C86.5 120.3 91.8 115.1 98.3 115.1Z" fill="black"/>
<path d="M119.3 169.7C131.505 169.7 141.4 159.806 141.4 147.6C141.4 135.395 131.505 125.5 119.3 125.5C107.094 125.5 97.2 135.395 97.2 147.6C97.2 159.806 107.094 169.7 119.3 169.7Z" fill="white"/>
<path d="M110.2 135.8C109.9 138.8 110.3 141.9 111.3 144.8C111.5 145.6 112 146.4 112.6 147.1C113.4 147.7 114.3 148.1 115.3 148.3C116.9 148.6 118.5 148.8 120.1 148.8C121.8 149 123.5 148.5 124.9 147.5C126.5 146.2 126.3 144.5 127 142.8C127.5 141.5 129 141 129.5 139.6C129.7 138.8 129.8 138 129.7 137.3C129.5 135.2 128.6 133.2 127.2 131.6C125.4 129.7 122.6 129.1 120.1 129C117.6 128.9 115 128.4 114.8 131.4C113.9 131.2 113 131.3 112.2 131.9C111 132.8 110.3 134.3 110.2 135.8Z" fill="white"/>
<path d="M120.2 149.5H120C118.3 149.5 116.6 149.3 115 149C113.9 148.9 112.8 148.4 111.9 147.6C111.2 146.9 110.7 146 110.4 145C109.4 142 109 138.8 109.2 135.6C109.3 133.9 110.1 132.2 111.4 131.1C112.1 130.6 112.9 130.3 113.8 130.3C114.5 127.8 116.9 127.9 118.8 128H119.8C123.1 128 125.8 129 127.5 130.8C129 132.5 130 134.7 130.2 137C130.3 137.9 130.3 138.8 130 139.7C129.7 140.5 129.1 141.2 128.5 141.7C128.1 142 127.7 142.4 127.5 142.9C127.3 143.4 127.2 143.9 127 144.5C126.8 145.9 126.1 147.1 125.1 148C123.8 149.1 122 149.6 120.2 149.5ZM111 135.9C110.7 138.8 111.1 141.7 112.1 144.5C112.3 145.2 112.6 145.9 113.1 146.4C113.7 147 114.5 147.3 115.4 147.4C116.9 147.7 118.5 147.8 120.1 147.9C121.6 148 123.1 147.6 124.3 146.8C125 146.1 125.5 145.2 125.6 144.2C125.7 143.6 125.9 143 126.1 142.4C126.4 141.7 126.9 141.1 127.5 140.6C128 140.2 128.4 139.8 128.6 139.2C128.8 138.6 128.8 137.9 128.7 137.2C128.5 135.3 127.8 133.4 126.5 131.9C124.7 129.9 121.6 129.6 120 129.6C119.7 129.6 119.3 129.6 119 129.6C116.6 129.5 115.7 129.6 115.5 131.3C115.5 131.7 115.1 132.1 114.6 132H114.5C113.9 131.8 113.2 132 112.7 132.4C111.7 133.4 111.1 134.7 111 135.9Z" fill="#231F20"/>
<path d="M117.7 175.6L114.6 152.6L125.6 154.1L129.4 175.6L138.8 174.8C138.5 163.7 134.5 154.3 131.6 152.2C128.1 149.6 114.8 150.1 114.8 150.1C114.8 150.1 104.2 154.6 101.5 159.7C100.3 161.9 99.6001 168.1 99.9001 175.8L117.7 175.6Z" fill="black"/>
<path d="M125.6 147.6L126.7 153.6C126.7 153.6 125.3 157.5 121.3 157C118.9 156.7 116.8 155.3 115.6 153.2L114.5 142.3C114.5 142.3 117.2 140.5 115.7 134.3C119 135.3 122.5 135.4 125.9 134.6C125.9 134.6 128.4 141.2 128.2 144.2C128.2 145.8 127.1 147.3 125.6 147.6Z" fill="white"/>
<path d="M121.9 157.8C121.6 157.8 121.4 157.8 121.1 157.8C118.5 157.4 116.1 155.9 114.8 153.6C114.8 153.5 114.7 153.4 114.7 153.3L113.6 142.4C113.6 142.1 113.7 141.8 113.9 141.6C114 141.5 116.1 139.9 114.8 134.5C114.7 134.2 114.8 133.9 115 133.7C115.2 133.5 115.5 133.4 115.8 133.5C119 134.5 122.3 134.6 125.6 133.8C126 133.7 126.4 133.9 126.5 134.3C126.6 134.6 129 141.1 128.9 144.3C128.9 146 128 147.5 126.4 148.2L127.4 153.5C127.4 153.6 127.4 153.8 127.4 153.9C126.6 156.3 124.4 157.8 121.9 157.8ZM116.3 152.9C117.4 154.7 119.2 155.8 121.3 156.1C123.2 156.3 125 155.2 125.7 153.4L124.7 147.7C124.7 147.5 124.7 147.3 124.8 147.1C124.9 146.9 125.1 146.8 125.3 146.8C126.5 146.5 127.3 145.4 127.2 144.2C127.3 141.9 125.8 137.3 125.2 135.6C122.3 136.2 119.4 136.1 116.6 135.5C117.3 139.8 115.9 141.9 115.2 142.7L116.3 152.9Z" fill="#231F20"/>
<path d="M121.2 138.8C121.2 138.8 123.4 142 122.9 142.6C122.4 143.2 120.9 142.8 120.9 142.8" fill="white"/>
<path d="M121.8 143.7C121.4 143.7 121 143.6 120.7 143.6C120.3 143.5 120 143.1 120.1 142.7C120.2 142.3 120.6 142 121 142.1C121.3 142.2 121.7 142.2 122 142.2C121.6 141.2 121.1 140.2 120.4 139.3C120.2 138.9 120.3 138.5 120.6 138.2C121 138 121.4 138.1 121.7 138.4C124.2 142.1 123.6 142.8 123.3 143.1C123 143.5 122.4 143.7 121.8 143.7Z" fill="#231F20"/>
<path d="M119.123 139.096C119.344 139.089 119.51 138.681 119.495 138.184C119.48 137.687 119.288 137.29 119.068 137.297C118.847 137.304 118.68 137.712 118.695 138.209C118.711 138.705 118.902 139.103 119.123 139.096Z" fill="#231F20"/>
<path d="M124.124 138.797C124.344 138.79 124.511 138.382 124.496 137.885C124.48 137.388 124.289 136.991 124.068 136.998C123.847 137.005 123.681 137.413 123.696 137.91C123.711 138.407 123.903 138.804 124.124 138.797Z" fill="#231F20"/>
<path d="M116.7 140.4C116.3 139.8 115.8 139.4 115.2 139C114.9 138.8 114.6 138.7 114.2 138.7C113.9 138.7 113.6 138.8 113.4 139C112.7 139.5 112.2 140.4 112.1 141.2C112.1 141.6 112.1 142 112.3 142.4C112.6 143 113.1 143.5 113.6 143.7C114.2 144 114.8 144.2 115.4 144.3" fill="white"/>
<path d="M115.4 145.2H115.2C114.5 145.1 113.8 144.8 113.2 144.5C112.4 144.1 111.8 143.5 111.5 142.7C111.3 142.2 111.2 141.6 111.3 141.1C111.4 140 112 138.9 112.9 138.3C113.3 138 113.7 137.8 114.1 137.8C114.6 137.8 115.2 137.9 115.6 138.3C116.3 138.7 116.9 139.3 117.3 139.9C117.6 140.3 117.5 140.7 117.1 141C116.7 141.3 116.2 141.2 116 140.8C115.7 140.3 115.2 139.9 114.8 139.6C114.6 139.5 114.4 139.4 114.2 139.4C114 139.4 113.9 139.5 113.8 139.6C113.2 140 112.9 140.6 112.8 141.3C112.8 141.6 112.8 141.9 112.9 142.1C113.1 142.5 113.5 142.8 113.9 143C114.4 143.2 115 143.4 115.6 143.5C116 143.6 116.3 144 116.2 144.4C116.2 144.4 116.2 144.4 116.2 144.5C116.1 145 115.8 145.2 115.4 145.2Z" fill="#231F20"/>
<path d="M124.8 144.5L119.5 145C120 145.8 121 146.4 122 146.4C123.5 146.4 124.8 144.5 124.8 144.5Z" fill="#231F20"/>
<path d="M200.9 137.7H149.5C149.1 137.7 148.7 137.4 148.6 137C148.6 136.6 148.9 136.2 149.3 136.1C149.4 136.1 149.4 136.1 149.5 136.1H200.9C201.3 136.1 201.6 136.5 201.6 137C201.5 137.3 201.2 137.6 200.9 137.7Z" fill="white"/>
<path d="M200.9 151.2H149.5C149.1 151.2 148.7 150.9 148.7 150.4C148.7 150 149 149.6 149.5 149.6H200.9C201.3 149.6 201.7 149.9 201.7 150.4C201.6 150.9 201.3 151.2 200.9 151.2Z" fill="white"/>
<path d="M188.6 164.8H149.5C149.1 164.8 148.7 164.5 148.7 164C148.7 163.6 149 163.2 149.5 163.2H188.6C189 163.2 189.4 163.6 189.4 164C189.3 164.4 189 164.8 188.6 164.8Z" fill="white"/>
<path d="M201.6 185.8C201.6 185.8 225.8 186.2 225.4 185.8C225 185.4 206.3 168.5 206.3 168.5L201.6 185.8Z" fill="black"/>
<path d="M399.8 155.7H296.5C290 155.7 284.8 150.4 284.8 144V96.7C284.8 90.2 290.1 85 296.5 85H399.8C406.3 85 411.5 90.3 411.5 96.7V143.9C411.5 150.4 406.3 155.7 399.8 155.7Z" fill="black"/>
<path d="M318.6 139.6C330.806 139.6 340.7 129.706 340.7 117.5C340.7 105.295 330.806 95.4 318.6 95.4C306.395 95.4 296.5 105.295 296.5 117.5C296.5 129.706 306.395 139.6 318.6 139.6Z" fill="white"/>
<path d="M400.1 107.5H348.7C348.3 107.5 348 107.1 348 106.6C348 106.2 348.3 105.9 348.7 105.9H400.1C400.5 105.9 400.8 106.3 400.8 106.8C400.8 107.2 400.5 107.5 400.1 107.5Z" fill="white"/>
<path d="M400.1 121.1H348.7C348.3 121.1 348 120.7 348 120.2C348 119.8 348.3 119.5 348.7 119.5H400.1C400.5 119.5 400.8 119.9 400.8 120.4C400.8 120.7 400.5 121 400.1 121.1Z" fill="white"/>
<path d="M387.8 134.6H348.7C348.3 134.6 347.9 134.3 347.9 133.8C347.9 133.4 348.2 133 348.7 133H387.8C388.2 133 388.6 133.3 388.6 133.8C388.6 134.3 388.2 134.6 387.8 134.6Z" fill="white"/>
<path d="M296.5 155.7C296.5 155.7 272.3 156.1 272.7 155.7C273.1 155.3 291.8 138.4 291.8 138.4L296.5 155.7Z" fill="black"/>
<path d="M314.3 99.2H314.9C315.8 99.4 316.7 99.7 317.6 100.1C319 99.1 320.9 99.3 322.6 99.9C327.8 101.8 336.8 113.1 331.7 118.6C330.5 119.7 329 120.3 327.4 120.4C323 121.1 318.6 121.4 314.2 121.1C312.6 121.1 311 120.8 309.6 120.1C305.3 117.7 307.8 108.4 309.5 104.8C310.2 103.1 311.2 101.6 312.3 100.1C312.7 99.6 313.5 99.3 314.3 99.2Z" fill="white"/>
<path d="M317.7 121.9C316.5 121.9 315.3 121.9 314.1 121.8C312.4 121.8 310.7 121.4 309.1 120.7C304.3 118.1 306.7 108.7 308.7 104.5C309.4 102.7 310.4 101.1 311.7 99.6C312.4 99 313.3 98.6 314.2 98.5C314.4 98.5 314.7 98.5 314.9 98.5C315.8 98.7 316.7 98.9 317.6 99.3C319.3 98.6 321.2 98.5 322.8 99.2C326.6 100.6 332.2 106.5 333.6 112.1C334.3 114.9 333.8 117.4 332.2 119.1C330.9 120.3 329.3 121 327.5 121.1C324.2 121.7 321 121.9 317.7 121.9ZM314.4 99.9C313.8 99.9 313.2 100.2 312.7 100.6C311.6 101.9 310.7 103.4 310 105C308.1 109 306.2 117.4 309.8 119.4C311.2 120 312.6 120.4 314.2 120.4C318.6 120.7 322.9 120.4 327.3 119.7C328.7 119.6 330.1 119 331.2 118.1C332.5 116.7 332.8 114.8 332.2 112.4C330.9 107.3 325.8 101.8 322.3 100.5C321.5 100.2 319.4 99.6 318 100.6C317.7 100.8 317.4 100.8 317.1 100.6C316.4 100.3 315.6 100.1 314.8 99.9H314.4Z" fill="#231F20"/>
<path d="M311 140.9C311.6 134 312.1 125.2 312.1 125.1L321.8 125.5L321.1 140.9L339.8 137.5C338.3 134.1 336.4 130.9 334.1 127.9C329.7 122 320.2 122 319.9 122C320.1 122 324.5 122 312.1 121.3C298.7 120.5 294.7 136.5 294.7 136.5L296.6 137.5L311 140.9Z" fill="black"/>
<path d="M313.5 119.6L312.4 125.6C312.4 125.6 312.3 129.1 316.2 128.8C318.5 128.6 320.6 127.4 322 125.5L323.2 118.1C323.8 115.3 324.3 112.5 324.6 109.7C321.7 110.6 318.1 107 317.2 104.6C316.7 106.1 317.1 107.7 318.1 108.9C316.5 108.3 315.2 107 314.7 105.3C313.8 106 313 106.7 312.3 107.5C311.7 108.4 311.2 109.4 310.8 110.5C310.2 112.4 309.8 115.2 310.7 117C311.2 118.1 312.2 119.1 313.5 119.6Z" fill="white"/>
<path d="M315.8 129.5C314.7 129.6 313.7 129.2 312.9 128.5C312.1 127.7 311.7 126.7 311.7 125.6C311.7 125.5 312.4 121.5 312.7 120C311.5 119.3 310.6 118.3 310 117.1C308.8 114.8 309.6 111.4 310.1 110.1C310.4 109 311 107.9 311.7 106.9C311.7 106.9 314 104.3 314.8 104.4C315.1 104.5 315.3 104.6 315.4 104.9C315.6 105.6 315.9 106.2 316.4 106.7C316.2 105.9 316.3 105 316.5 104.2C316.6 103.8 317.1 103.6 317.4 103.8C317.6 103.9 317.8 104 317.8 104.2C318.6 106.3 321.9 109.7 324.3 108.9C324.5 108.8 324.8 108.9 325 109C325.2 109.1 325.3 109.4 325.3 109.6C325.1 111.6 324.9 113.5 324.4 115.5C324.2 116.4 324.1 117.3 323.9 118.1L322.7 125.5C322.7 125.6 322.7 125.7 322.6 125.8C321.2 127.9 318.8 129.3 316.3 129.5H315.8ZM313.1 125.7C313.2 126.4 313.4 127 313.9 127.5C314.5 128 315.4 128.2 316.2 128.1C318.3 127.9 320.1 126.9 321.3 125.2L322.5 117.9C322.6 117 322.8 116.1 323 115.2C323.3 113.6 323.6 112 323.8 110.4C321.6 110.5 319.3 108.8 317.9 107C318.1 107.5 318.3 107.9 318.6 108.3C318.9 108.6 318.8 109 318.6 109.3C318.4 109.5 318.1 109.5 317.9 109.4C316.4 108.9 315.1 107.8 314.4 106.3C313.8 106.8 313 107.6 312.9 107.7C312.3 108.5 311.9 109.5 311.6 110.4C310.8 112.9 310.8 115.1 311.4 116.3C311.9 117.4 312.7 118.3 313.8 118.7C314.2 118.8 314.4 119.2 314.3 119.5C314.2 119.8 313.1 125.5 313.1 125.7Z" fill="#231F20"/>
<path d="M322.9 113.7C323.1 113.3 323.4 112.9 323.8 112.7C324.2 112.5 324.6 112.4 325 112.3C325.2 112.2 325.5 112.2 325.7 112.3C325.9 112.3 326 112.4 326.1 112.5C326.4 112.7 326.7 113.1 326.7 113.4C326.7 113.7 326.7 114 326.6 114.3C326.5 114.6 326.4 114.9 326.2 115.2C325.8 115.8 325.2 116.2 324.6 116.4C323.9 116.6 323.2 116.4 322.6 116" fill="white"/>
<path d="M324.1 117.2C323.5 117.2 322.9 117 322.3 116.7C322 116.5 321.9 116.1 322.1 115.8C322.3 115.5 322.7 115.4 322.9 115.6C323.3 115.9 323.9 116 324.4 115.9C324.9 115.8 325.4 115.5 325.7 115C325.9 114.8 326 114.5 326 114.2C326.1 114 326.1 113.8 326.1 113.6C326 113.4 325.9 113.2 325.7 113C325.6 112.9 325.6 112.9 325.5 112.9C325.4 112.9 325.2 112.9 325.1 112.9C324.8 113 324.4 113.1 324.1 113.2C323.8 113.4 323.6 113.6 323.5 113.9C323.4 114.2 323 114.4 322.7 114.3C322.4 114.2 322.2 113.8 322.3 113.5V113.4C322.5 112.8 322.9 112.4 323.5 112.1C323.9 111.9 324.4 111.7 324.9 111.6C325.2 111.5 325.6 111.5 325.9 111.6C326.1 111.7 326.3 111.8 326.5 111.9C326.9 112.2 327.3 112.7 327.4 113.2C327.5 113.6 327.4 114 327.3 114.4C327.2 114.8 327 115.2 326.8 115.5C326.3 116.2 325.6 116.7 324.8 116.9C324.7 117.2 324.4 117.2 324.1 117.2Z" fill="#231F20"/>
<path d="M315.3 110.6C315.3 110.6 312.8 113.1 313.1 113.7C313.4 114.3 314.8 114.2 314.8 114.2" fill="white"/>
<path d="M314.6 114.9C313.8 115 313 114.7 312.5 114.1C312.3 113.8 311.9 113 314.8 110.2C315.1 109.9 315.5 109.9 315.8 110.2C316.1 110.5 316.1 110.9 315.8 111.2C315.1 111.9 314.4 112.6 313.9 113.5C314.2 113.6 314.5 113.6 314.9 113.6C315.3 113.6 315.6 113.9 315.6 114.3C315.6 114.7 315.3 115 315 115H314.6V114.9Z" fill="#231F20"/>
<path d="M318.971 111.608C319.133 111.257 319.061 110.878 318.81 110.763C318.56 110.647 318.225 110.837 318.063 111.188C317.901 111.539 317.973 111.918 318.223 112.033C318.474 112.149 318.809 111.959 318.971 111.608Z" fill="#231F20"/>
<path d="M313.689 110.652C313.852 110.301 313.78 109.923 313.529 109.807C313.279 109.691 312.944 109.882 312.782 110.233C312.62 110.584 312.691 110.962 312.942 111.078C313.193 111.194 313.527 111.003 313.689 110.652Z" fill="#231F20"/>
<path d="M312.6 115.3L316.9 115.5C316.9 116.6 316 117.4 315 117.4C314.9 117.4 314.7 117.4 314.6 117.4C313.5 117.4 312.7 116.5 312.6 115.3Z" fill="#231F20"/>
</svg>
