<svg width="500" height="500" viewBox="0 0 500 500" fill="none" xmlns="http://www.w3.org/2000/svg">
<path opacity="0.18" d="M491.79 294.29C491.79 303.85 490.74 313.37 488.64 322.7C470.04 406.06 370.9 469.69 251.43 469.69C202.14 469.69 156.31 458.86 118.18 440.29C91.8702 427.48 69.2102 410.98 51.6002 391.8C44.1102 384.7 37.5302 376.7 31.9802 368C-18.5598 289.54 0.400223 149.55 85.9302 150.71C96.1302 150.91 106.34 150.39 116.47 149.15C140.5 146.05 155.08 138.78 163.91 130.9C166.08 128.97 168.05 126.84 169.81 124.53C182.1 108.2 200.21 97.24 220.38 93.93C398.79 65.35 463.75 154.29 483.89 229.23C489.36 249.44 492 270.31 491.73 291.24C491.78 292.25 491.8 293.27 491.8 294.28L491.79 294.29Z" fill="white"/>
<path opacity="0.05" d="M132.68 408.09L37.49 375.95C37.49 375.95 2.46004 332.49 4.41004 259.41L146.07 317.4C146.07 317.4 207.67 299.7 244.36 297.93C281.06 296.16 443.74 279.08 443.74 279.08C443.74 279.08 475.14 315.07 461.17 326.08C447.21 337.09 346.7 338.94 346.7 338.94L276.81 297.98L218.06 343.4L173.21 385.67L132.68 408.1V408.09Z" fill="#000405"/>
<path d="M288.73 246.73L287.23 250.53C287.23 250.53 291.72 254.5 288.73 256.2C288.73 256.2 304.29 255.24 288.73 246.73Z" fill="#231F20"/>
<path d="M245.04 257.47L243.34 264.11L252.04 271.82C252.04 271.82 249.55 271.82 247.55 275.71L246.76 284.21C246.76 284.21 252.61 296.86 268.74 285.8L294.9 308.93L352.93 288.49L354.17 280.58L245.03 257.47H245.04Z" fill="#231F20"/>
<path d="M402.37 263.81L373.5 252.47C369.88 250.44 365.51 250.32 361.78 252.13C358.47 253.7 356.29 256.97 356.14 260.64C355.15 271.55 361.02 321.79 361.02 321.79C363.19 322.63 365.44 323.21 367.75 323.52C371.84 324.33 376.08 323.3 379.33 320.69L379.89 282.9C379.89 282.9 412.43 303 424.04 301.33C437.03 299.46 457.93 288.8 443.81 264.08C429.69 239.36 402.37 263.83 402.37 263.83V263.81Z" fill="#030303"/>
<path d="M378.45 197.34C378.45 197.34 369.97 224.33 367.69 230.11C365.41 235.89 325.32 240.71 325.32 240.71L326.82 258.03L372.46 252.36L386.18 232.51L378.45 197.33V197.34Z" fill="#030303"/>
<path d="M401.28 188.39L410.57 193.55C427.83 201.26 434.1 218.41 443.82 264.19C443.82 264.19 435.66 282.44 405.61 270.17C405.61 270.17 385.22 240.37 381.85 229.21C378.49 218.04 370.02 198.82 385.59 191.47C401.16 184.12 401.28 188.39 401.28 188.39Z" fill="#030303"/>
<path d="M421.2 227.69L432.52 270.4C432.52 270.4 420.97 277.44 405.53 270.15C390.09 262.85 395.56 255.6 390.58 246.73L405.7 238.51L421.2 227.7V227.69Z" fill="url(#paint0_linear_53_78)"/>
<path d="M399.97 186.54C397.53 191.82 391.27 194.13 385.98 191.69C385.98 191.69 385.98 191.69 385.97 191.69L385.54 191.48C385.54 191.48 376.81 206.71 389.28 204.89C395.89 203.93 401.67 194.09 402.78 189.1L399.98 186.54H399.97Z" fill="url(#paint1_linear_53_78)"/>
<path d="M400.53 174.33C400.53 174.5 400.13 182.01 399.83 187.43C399.61 191.62 397.81 195.57 394.8 198.49C393.06 200.3 390.96 201.74 388.64 202.71C387.5 203.13 386.22 202.88 385.32 202.06C384.42 201.23 384.06 199.97 384.38 198.79C384.68 197.66 384.98 196.36 385.22 195C385.71 192.17 385.97 189.12 385.17 186.96C385.15 186.88 385.12 186.8 385.09 186.72C384.64 185.61 385.09 184.39 386.14 183.16C387.59 181.44 390.13 179.7 392.67 178.23C395.22 176.79 397.84 175.49 400.53 174.34V174.33Z" fill="#FFB4A3"/>
<path d="M386.88 194.42C386.36 194.68 385.81 194.88 385.24 195C385.73 192.17 385.99 189.12 385.19 186.96L386.16 183.16L386.91 180.33L392.73 178.22L398.61 176.09C397.14 186.54 391.56 192.23 386.88 194.42Z" fill="#E2897A"/>
<path d="M385.39 144.56C376.18 145.11 369.16 153.01 369.69 162.22C369.69 162.65 369.76 163.07 369.82 163.5C370.34 170.28 372.09 176.92 374.96 183.09C380.41 192.39 394.16 184.73 396.34 180.91C398.52 177.09 406.74 159.76 403.29 154.84C401.01 151.49 394.31 144.23 385.39 144.58V144.56Z" fill="#FFB4A3"/>
<path d="M370.87 137.98L373.7 139.43C370.28 139.35 367.03 140.92 364.97 143.65C362.39 146.23 360.92 149.72 360.87 153.37L365.68 151.13C365.68 151.13 365.31 157.05 374.4 157.51C383.49 157.97 393.13 158.33 393.13 158.33L390.07 154.05C390.07 154.05 395.71 156.29 396.71 158.42C397.6 161.77 398.24 165.18 398.62 168.63C398.62 168.63 400.86 162.78 401.81 164.06C402.76 165.34 400.82 170.64 399.63 171.8C398.44 172.96 398.64 176.45 398.53 176.73C398.42 177.01 404.18 172.24 404.44 170.61C404.7 168.98 410.42 152.39 406.68 148.93L408.92 148.77C407.58 147.86 406.04 147.26 404.43 147.04C404.43 147.04 389.56 127.39 370.87 137.99V137.98Z" fill="#231F20"/>
<path d="M325.26 242.88C322.38 242.38 319.55 241.63 316.81 240.64C312.41 239.5 307.9 238.79 303.35 238.54C303.35 238.54 302.48 241.53 304.85 242.14C307.22 242.75 309.93 243.75 309.93 243.75L300.05 244.74L290.9 245.99C290.9 245.99 291.77 248.98 294.23 248.98C294.94 250.27 295.9 251.4 297.05 252.32C298.79 253.89 300.4 255.6 301.88 257.43C303.12 258.41 304.44 259.28 305.83 260.04C306.34 260.04 325.6 257.8 326.76 255.96L325.26 242.88Z" fill="#FFB4A3"/>
<path d="M405.62 270.17C405.62 270.17 408.61 285.05 413.04 288.8C413.04 288.8 383.98 311.48 382.62 327.89C380.73 350.57 452.24 315.4 452.24 315.4L447.29 302.87L416.28 316.62C416.28 316.62 435.15 303.87 444.55 291.11C451.92 280.99 447.91 271.67 443.8 264.44C443.73 264.2 425.93 278.91 405.6 270.18L405.62 270.17Z" fill="#030303"/>
<path d="M405.62 270.17C405.62 270.17 408.61 285.05 413.04 288.8C413.04 288.8 383.98 311.48 382.62 327.89C380.73 350.57 452.24 315.4 452.24 315.4L447.29 302.87L416.28 316.62C416.28 316.62 435.15 303.87 444.55 291.11C451.92 280.99 447.91 271.67 443.8 264.44C443.73 264.2 425.93 278.91 405.6 270.18L405.62 270.17Z" fill="url(#paint2_linear_53_78)"/>
<path d="M447.22 302.86L452.59 301.01L455.24 308.05L449.31 312.1L447.22 302.86Z" fill="#FFB4A3"/>
<path d="M368.32 326.61L367.81 323.49C371.89 324.14 376.06 323.1 379.37 320.63L379.68 325.74C376.26 327.88 372.01 328.21 368.31 326.61H368.32Z" fill="#FFB4A3"/>
<path d="M368.19 325.65L355.48 330.24C355.48 330.24 348.42 328.51 347 332.48C346.07 334.52 345.98 336.84 346.75 338.94C346.75 338.94 350.08 341.93 358.39 340.19C366.7 338.45 380.28 334.21 380.28 334.21L379.77 325.9C376.07 327.58 371.81 327.49 368.19 325.65Z" fill="#231F20"/>
<path d="M453.6 299.4C453.6 299.4 450.41 300.71 450.77 301.55C451.13 302.39 452.27 300.53 455.12 308.08L453.29 309.42L457.27 317.92C455.15 319.52 453.99 322.1 454.2 324.75C454.6 326.82 458.27 327.1 461.2 326.09C464.13 325.08 465.41 318.55 465.41 318.55C465.41 318.55 463.49 302.9 459.53 300.3C455.58 297.69 453.59 299.41 453.59 299.41L453.6 299.4Z" fill="#231F20"/>
<path d="M357.77 283.5L297.77 302.41L270.26 279.57C259.17 290.9 245.83 282.4 247.66 275.79C249.49 269.18 261.79 271.57 261.79 271.57L245.12 257.57L276.31 249.72C276.5 250.82 277.81 256.15 285.38 256.57C293.85 257.06 295.77 250.16 288.74 246.79L308.52 241.64L357.77 283.51V283.5Z" fill="#030303"/>
<path opacity="0.05" d="M341.74 276.07C341.33 276.18 340.94 276.36 340.6 276.61C340.28 276.92 339.99 277.26 339.75 277.63C338.64 279.01 336.84 279.55 335.21 280.2C333.36 280.93 331.6 281.88 329.98 283.03C329.74 283.17 329.54 283.38 329.43 283.64C329.18 284.44 330.42 284.84 330.84 285.56C331.09 286.12 330.99 286.77 330.59 287.23C330.19 287.67 329.71 288.04 329.18 288.31C326.33 290.05 323.85 292.32 321.85 294.99C330.89 290.29 340.32 286.36 350.03 283.25C350.79 283.06 351.5 282.72 352.12 282.25C352.75 281.76 353 280.92 352.76 280.16C352.6 279.79 353.17 279.7 352.87 279.41C351.41 278.11 348.96 275.93 347.01 274.34C347.04 274.35 343.29 275.56 341.75 276.07H341.74Z" fill="#000405"/>
<path d="M421.46 201.63C418.16 197.75 412.35 197.28 408.47 200.57C407.15 201.69 406.17 203.16 405.65 204.81C405.11 206.54 404.54 208.61 403.98 211.16C400.99 224.94 387.45 254.9 387.45 254.9L348.13 276.14L358.89 289.92L404.94 267.24C404.94 267.24 425.33 222.19 424.97 213.6C425.09 209.34 423.86 205.16 421.46 201.64V201.63Z" fill="#030303"/>
<path d="M351.5 278.06C348.66 278.82 345.76 279.34 342.83 279.61C338.35 280.42 333.96 281.67 329.73 283.35C329.73 283.35 330.18 286.41 332.56 285.99C334.94 285.56 337.84 285.37 337.84 285.37L329.37 290.45L321.57 295.44C321.57 295.44 323.6 297.79 325.83 296.74C327.03 297.61 328.38 298.23 329.81 298.59C332.04 299.28 334.21 300.15 336.31 301.17C337.85 301.54 339.42 301.78 341 301.88C341.46 301.68 358.15 291.47 358.26 289.35L351.51 278.07L351.5 278.06Z" fill="#FFB4A3"/>
<path d="M110.85 369.7L109.04 374.83L123.87 381.77C123.87 381.77 137.65 383.5 141.89 379.87C144.46 377.6 146.34 374.66 147.31 371.37L110.85 369.7Z" fill="#231F20"/>
<path d="M149.75 321.59C149.75 321.59 167.23 321.28 172.34 327.63C177.45 333.98 159.08 352.77 159.08 352.77L116.7 355.76L149.75 321.59Z" fill="white"/>
<path d="M149.75 321.59C149.75 321.59 167.23 321.28 172.34 327.63C177.45 333.98 159.08 352.77 159.08 352.77L116.7 355.76L149.75 321.59Z" fill="url(#paint3_linear_53_78)"/>
<path d="M149.12 348.84C149.12 348.84 185.84 352.15 192.22 354.51C204.29 359.05 200.7 376 195.21 377.81C190.66 379.34 156.03 392.01 144.96 396.07C143.05 396.76 140.94 395.84 140.15 393.97L136.35 384.92C135.53 382.97 136.45 380.72 138.4 379.9C138.52 379.85 138.65 379.8 138.78 379.76L160.56 373.28C160.56 373.28 128.22 376.54 121.69 375.09C107.23 371.92 92.9602 353.41 100.56 337.25C108.15 321.09 149.11 348.84 149.11 348.84H149.12Z" fill="white"/>
<path d="M149.12 348.84C149.12 348.84 185.84 352.15 192.22 354.51C204.29 359.05 200.7 376 195.21 377.81C190.66 379.34 156.03 392.01 144.96 396.07C143.05 396.76 140.94 395.84 140.15 393.97L136.35 384.92C135.53 382.97 136.45 380.72 138.4 379.9C138.52 379.85 138.65 379.8 138.78 379.76L160.56 373.28C160.56 373.28 128.22 376.54 121.69 375.09C107.23 371.92 92.9602 353.41 100.56 337.25C108.15 321.09 149.11 348.84 149.11 348.84H149.12Z" fill="url(#paint4_linear_53_78)"/>
<path d="M220.13 272.58L234.48 278.25V286.76C234.48 286.76 217.29 287.13 217.29 294.58C217.29 302.03 233.5 307.88 244.37 297.93L269.11 312.13L268.21 319.41L192.98 346.63L149.88 294.04V285.54L220.13 272.59V272.58Z" fill="#231F20"/>
<path d="M220.13 264.19L234.51 278.22C234.51 278.22 217.32 278.59 217.32 286.05C217.32 293.51 233.53 299.35 244.4 289.39L269.14 312.07L193.77 338.64L149.88 285.68L179.45 276.63C179.45 276.63 170.05 270.31 179.08 266.08C180.75 265.26 182.56 264.77 184.42 264.64C191.51 264.36 192.64 268.01 193.58 272.01V272.32L220.12 264.18L220.13 264.19Z" fill="white"/>
<path opacity="0.05" d="M161.83 282.02C161.83 282.02 173.79 308.02 179.48 312.33C182.65 314.74 204.56 321.88 223.17 322.89C224.91 322.99 230.35 317.94 232.93 318.61C236.67 319.59 232.25 322.95 233.12 322.99C244.33 323.52 250.54 318.61 250.54 318.61L191.49 339.93L151.92 283.19L161.84 282.02H161.83Z" fill="#000405"/>
<path d="M219.45 328.57C221.45 325.95 223.75 323.56 226.28 321.45C228.36 320.21 230.59 319.26 232.92 318.62C232.92 318.62 233.97 321.8 232.17 322.4C230.37 323 229.34 326.14 229.34 326.14C229.34 326.14 242.39 328.64 243.97 327.87C245.55 327.1 245.7 329.54 242.62 330C239.54 330.46 239.63 334.87 237.54 335.23C235.45 335.59 232.34 337.58 229.26 338.32C225.69 338.63 222.1 338.46 218.57 337.83L219.44 328.58L219.45 328.57Z" fill="#FFA697"/>
<path d="M159.57 290.84C163.03 272 154.59 252.97 138.3 242.89C135.47 240.95 132.22 239.7 128.81 239.23C115.14 238.44 100.56 337.23 100.56 337.23C100.56 337.23 107.15 356.37 127.08 358.21C145.5 359.91 149.09 348.83 149.09 348.83L159.56 290.84H159.57Z" fill="white"/>
<path d="M159.57 290.84C163.03 272 154.59 252.97 138.3 242.89C135.47 240.95 132.22 239.7 128.81 239.23C115.14 238.44 100.56 337.23 100.56 337.23C100.56 337.23 107.15 356.37 127.08 358.21C145.5 359.91 149.09 348.83 149.09 348.83L159.56 290.84H159.57Z" fill="url(#paint5_linear_53_78)"/>
<path d="M128.82 239.21C128.82 239.21 130.82 224.3 131.65 214.61C132.47 204.91 135.66 191.93 151.93 193.63C168.2 195.33 168.2 219.94 163.67 230.26C159.14 240.58 153.14 240.24 153.14 240.24C153.14 240.24 145.04 238.45 145.31 248.21L128.82 239.22V239.21Z" fill="#FFA697"/>
<path d="M134.97 191.54C132.6 193.81 130.88 196.68 130 199.85C129.27 202.42 128.77 205.04 128.5 207.7L130.17 205.89C130.08 210.44 129.73 214.98 129.12 219.5C128.51 223.71 128.26 227.96 128.37 232.21L131.36 232.07L135.1 236.75L139.31 233.91L142.47 232.24L145.3 225.29C143.89 224.25 143.33 222.4 143.95 220.76C145 217.93 147.56 217.27 148.16 218.94C148.62 221.03 148.87 223.15 148.91 225.29L153.4 212.58C153.4 212.58 156.23 208.63 158.69 211.36C160.16 213.01 162.03 214.25 164.11 214.99L162.61 210.74L166.68 211.79L166.37 206.95L169.36 209.07C169.36 209.07 170.71 201.22 168.14 197.73C165.57 194.24 155.5 180.36 134.99 191.56L134.97 191.54Z" fill="#231F20"/>
<path d="M219.87 326.05L186.57 322.45C177.34 320.68 170.27 313.22 169 303.91L156.69 266.35C155.17 261.54 151.05 258.01 146.07 257.25C139.78 256.31 133.91 260.65 132.97 266.94C132.71 268.65 132.85 270.4 133.36 272.05L146.07 317.4C147.3 327.66 155.55 335.66 165.84 336.59L218.06 343.4L219.87 326.05Z" fill="white"/>
<path d="M219.87 326.05L186.57 322.45C177.34 320.68 170.27 313.22 169 303.91L156.69 266.35C155.17 261.54 151.05 258.01 146.07 257.25C139.78 256.31 133.91 260.65 132.97 266.94C132.71 268.65 132.85 270.4 133.36 272.05L146.07 317.4C147.3 327.66 155.55 335.66 165.84 336.59L218.06 343.4L219.87 326.05Z" fill="url(#paint6_linear_53_78)"/>
<path d="M137.68 381.18L127.88 383.42L131.8 394.76L142.06 392.39C142.06 392.39 144.8 383.62 137.68 381.18Z" fill="#FFA697"/>
<path d="M123.87 381.78C123.87 381.78 130.28 380.42 131.35 382.6C132.42 384.78 129 384.64 129.68 387.74C130.25 390.09 130.96 392.41 131.8 394.68L134.96 393.97L135.61 397.71C135.9 399.03 137.08 399.97 138.44 399.95C145.84 400.38 144.85 407.09 142.25 407.34L132.67 408.09L127.61 403.83C127 403.41 126.53 402.83 126.23 402.16C124.38 398.53 118.71 385.04 123.88 381.78H123.87Z" fill="#231F20"/>
<path d="M175.16 270.4L175.33 277.88L179.48 276.6C179.48 276.6 175.16 273.6 175.16 270.4Z" fill="#231F20"/>
<path opacity="0.4" d="M279.67 150.6C279.18 151.31 278.76 152.06 278.4 152.84C276.25 157.43 269 173.85 267.93 188.07C267.49 195.24 261.76 200.94 254.59 201.34L241.63 202.09L237.39 202.31C230.35 202.73 224.08 197.89 222.7 190.97C220.05 177.87 214.39 157.86 203.41 149.02C203.41 149.02 154.99 104.68 187.28 55.24C189.45 51.9 191.88 48.73 194.54 45.77C228.43 8.26001 284.36 25.35 297.8 60.19C311.24 95.03 285.01 143.08 279.66 150.6H279.67Z" fill="#ECE26F"/>
<path d="M269.78 207.47C268.65 210.3 267.35 211.66 268.48 213.54C269.61 215.42 272.86 220.46 256.36 222.7C252.94 223.17 249.5 223.45 246.05 223.52H240.65L237.49 223.38C233.88 223.16 230.96 222.79 229.02 222.48C226.88 222.17 224.98 220.96 223.79 219.16C223.2 217.8 223.43 216.22 224.39 215.08C225.27 214.26 225.32 212.88 224.5 212C224.28 211.76 224.01 211.58 223.71 211.46C221.85 209.72 221.73 206.81 223.43 204.91C223.83 204.49 224.17 204.01 224.42 203.49C225.14 201.84 224.89 199.93 223.77 198.53L223.31 197.97C222.68 197.12 222.22 196.15 221.96 195.13C221.4 193.7 221.66 192.07 222.64 190.88C224.02 197.79 230.29 202.63 237.32 202.21L241.56 201.96C241.68 201.8 241.78 201.61 241.84 201.42C242.59 199.61 240.91 197.51 241.76 194.69L244.94 194.55C252.77 194.08 260.5 192.57 267.93 190.06C269.6 191.44 270.07 193.81 269.06 195.73C268.77 196.36 268.57 197.03 268.47 197.71C268.28 199.15 268.52 200.61 269.17 201.9C269.24 202.06 269.33 202.21 269.42 202.36C270.34 203.91 270.47 205.81 269.76 207.47H269.78Z" fill="#ECE26F"/>
<path d="M222.68 190.86C237.47 187.03 252.95 186.75 267.87 190.04C267.87 190.04 243.38 200.07 222.68 190.86Z" fill="#231F20"/>
<path d="M244.36 223.25C243.13 223.49 241.87 223.58 240.62 223.5L237.45 223.36C233.84 223.14 230.93 222.77 228.98 222.46C226.84 222.15 224.94 220.94 223.75 219.14C223.16 217.78 223.39 216.2 224.34 215.06C224.88 214.54 225.13 213.79 225 213.06C224.86 212.33 224.36 211.71 223.66 211.44C221.8 209.7 221.68 206.79 223.38 204.89C225.1 203.16 225.25 200.41 223.72 198.51C222.89 197.53 222.29 196.37 221.97 195.13C221.41 193.7 221.67 192.07 222.64 190.88C229.73 193.59 237.29 194.83 244.87 194.51L245.24 194.68C245.24 194.68 242.41 195.76 243.15 198.22C243.89 200.68 244.96 205.13 242.53 208.03C240.1 210.93 244.77 211.72 243.89 214.97V215.28C243.53 216.25 243.26 217.25 243.07 218.27C242.56 220.83 242.8 223.02 244.36 223.24V223.25Z" fill="url(#paint7_linear_53_78)"/>
<path opacity="0.49" d="M244.93 194.48C237.34 194.81 229.77 193.57 222.68 190.85C220.05 177.84 214.4 157.82 203.42 148.99C203.42 148.99 155 104.65 187.29 55.21C189.46 51.87 191.89 48.7 194.55 45.74L198.9 45.34C198.9 45.34 227.86 30.08 240.14 46.78C252.42 63.48 225.62 82.35 224.21 112.85C222.8 143.35 257.69 148.99 244.94 194.47L244.93 194.48Z" fill="white"/>
<path d="M265.97 215.31C263.88 216.67 256.36 219.23 242.98 218.3C236.7 217.8 230.49 216.7 224.43 215.01C225.31 214.19 225.36 212.81 224.54 211.93C224.32 211.69 224.05 211.51 223.75 211.39C230.25 213.62 237.06 214.81 243.93 214.93C251.64 215.15 259.35 214.19 266.77 212.1C266.77 212.1 269.1 213.27 265.97 215.31Z" fill="url(#paint8_linear_53_78)"/>
<path d="M269.16 201.93C266.65 204.03 257.15 207.91 243.43 206.58C236.99 206.35 230.6 205.29 224.42 203.43C225.14 201.79 224.89 199.88 223.77 198.47L223.31 197.9C224.21 198.24 225.74 198.72 227.8 199.26C232.43 200.43 237.16 201.18 241.93 201.5H244.13C252.43 201.83 260.72 200.52 268.51 197.64C268.28 199.1 268.51 200.59 269.17 201.92L269.16 201.93Z" fill="url(#paint9_linear_53_78)"/>
<path d="M266.1 118.89L265.2 118.28C266.56 114.16 267.04 109.8 266.61 105.47C265.53 96.32 259.07 90.74 248.45 89.77C232.15 88.22 225.7 96.63 223.31 101.78C216.4 116.16 222.65 139.43 232.61 149.88C244.88 162.69 240.15 186.85 238.41 193.98C238.35 194.15 238.31 194.33 238.3 194.52V195L240.8 195.85L240.98 195.15C242.47 189.44 243.33 183.59 243.55 177.7C243.99 164.99 240.95 154.71 234.72 147.99C225.53 138.35 219.55 116.11 225.9 102.94C229.75 95.05 237.52 91.42 248.38 92.43C260.2 93.55 263.47 100.33 264.12 105.8C264.46 109.54 264.05 113.32 262.92 116.9C260.28 115.57 257.25 115.23 254.38 115.94C248.78 117.48 245.25 123.28 243.26 127.86C242.25 130.18 242.71 132.89 244.43 134.74C246.11 136.56 248.7 137.22 251.05 136.44C256.1 134.65 261.36 128.46 264.32 120.91L264.61 121.11C272.83 126.9 266.96 135.81 260.21 146.15C255.4 153.39 249.44 162.41 248.8 171.29C248.05 179.24 248.4 185.53 248.93 193.54L248.97 194.18H251.66L251.62 193.43C251.1 185.44 250.78 179.23 251.49 171.5C252.07 163.37 257.56 155 262.4 147.58L262.62 147.24C269.63 136.45 276.26 126.21 266.09 118.9L266.1 118.89ZM250.07 133.84C248.74 134.3 247.27 133.91 246.33 132.86C245.32 131.79 245.06 130.22 245.66 128.88C247.08 125.58 250.19 119.83 255.03 118.49C255.72 118.3 256.44 118.21 257.15 118.21C258.8 118.27 260.42 118.68 261.89 119.44C259.07 126.56 254.28 132.45 250.07 133.87V133.84Z" fill="white"/>
<defs>
<linearGradient id="paint0_linear_53_78" x1="404.98" y1="260.84" x2="496.85" y2="211.32" gradientUnits="userSpaceOnUse">
<stop stop-color="#231F20" stop-opacity="0"/>
<stop offset="1" stop-color="#231F20"/>
</linearGradient>
<linearGradient id="paint1_linear_53_78" x1="382.56" y1="195.79" x2="402.77" y2="195.79" gradientUnits="userSpaceOnUse">
<stop stop-color="#231F20" stop-opacity="0"/>
<stop offset="1" stop-color="#231F20"/>
</linearGradient>
<linearGradient id="paint2_linear_53_78" x1="383.59" y1="284.45" x2="452.11" y2="317.18" gradientUnits="userSpaceOnUse">
<stop stop-color="#231F20" stop-opacity="0"/>
<stop offset="1" stop-color="#231F20"/>
</linearGradient>
<linearGradient id="paint3_linear_53_78" x1="116.7" y1="338.67" x2="173.24" y2="338.67" gradientUnits="userSpaceOnUse">
<stop stop-color="#231F20" stop-opacity="0"/>
<stop offset="1" stop-color="#231F20"/>
</linearGradient>
<linearGradient id="paint4_linear_53_78" x1="195.42" y1="303.39" x2="128.83" y2="379.48" gradientUnits="userSpaceOnUse">
<stop stop-color="#231F20" stop-opacity="0"/>
<stop offset="1" stop-color="#231F20"/>
</linearGradient>
<linearGradient id="paint5_linear_53_78" x1="85.0501" y1="298.31" x2="436.9" y2="302.22" gradientUnits="userSpaceOnUse">
<stop stop-color="#231F20" stop-opacity="0"/>
<stop offset="1" stop-color="#231F20"/>
</linearGradient>
<linearGradient id="paint6_linear_53_78" x1="202.73" y1="220.85" x2="70.7901" y2="628.41" gradientUnits="userSpaceOnUse">
<stop stop-color="#231F20" stop-opacity="0"/>
<stop offset="1" stop-color="#231F20"/>
</linearGradient>
<linearGradient id="paint7_linear_53_78" x1="248.89" y1="207.83" x2="203.71" y2="206.18" gradientUnits="userSpaceOnUse">
<stop stop-color="#231F20" stop-opacity="0"/>
<stop offset="1" stop-color="#231F20"/>
</linearGradient>
<linearGradient id="paint8_linear_53_78" x1="223.74" y1="214.95" x2="267.61" y2="214.95" gradientUnits="userSpaceOnUse">
<stop stop-color="#231F20" stop-opacity="0"/>
<stop offset="1" stop-color="#231F20"/>
</linearGradient>
<linearGradient id="paint9_linear_53_78" x1="223.32" y1="202.26" x2="269.16" y2="202.26" gradientUnits="userSpaceOnUse">
<stop stop-color="#231F20" stop-opacity="0"/>
<stop offset="1" stop-color="#231F20"/>
</linearGradient>
</defs>
</svg>
